#!OML:ASF H:\LiuWeirdWalks\Patient Classification 1\Patient 1\Session 1\male.ASF
:FULLY-SPECIFIED
:DEGREES
630
root 1.68491 17.2055 31.8782 0.423205 -2.66154 -2.07829
lowerback 17.4755 0.142574 -2.00142
upperback 0.350494 0.00344296 2.2479
thorax -9.45344 0.151508 3.58558
lowerneck -19.6899 1.49457 7.59487
upperneck 20.068 0.755211 -4.2041
head 9.65455 0.446987 -2.62309
rclavicle -8.54774e-015 -2.78299e-015
rhumerus -41.2598 4.2765 -74.9899
rradius 72.034
rwrist -3.03516
rhand -22.5502 -0.699905
rfingers 7.12502
rthumb 3.87751 -30.6444
lclavicle -8.54774e-015 -2.78299e-015
lhumerus -28.7689 -10.4556 76.383
lradius 56.9952
lwrist 3.86806
lhand -21.6444 -18.2151
lfingers 7.12502
lthumb 4.7521 11.7116
rfemur -33.6595 -9.56598 18.3985
rtibia 73.2142
rfoot -14.6356 -15.5892
rtoes -0.422723
lfemur -18.4895 -0.737278 -21.4946
ltibia 54.0568
lfoot -14.6746 13.3963
ltoes -22.3125
631
root 1.66517 17.2456 31.9867 0.448335 -2.63048 -2.19058
lowerback 17.2879 0.0670204 -2.09046
upperback 0.322817 -0.108046 2.29105
thorax -9.36963 0.102201 3.70901
lowerneck -19.8845 1.45509 7.56606
upperneck 20.2162 0.670066 -4.10182
head 9.73671 0.417948 -2.59729
rclavicle -1.21756e-014 1.70955e-014
rhumerus -41.795 4.63226 -74.8956
rradius 72.7439
rwrist -2.69299
rhand -22.5537 -0.534765
rfingers 7.12502
rthumb 3.87406 -30.4793
lclavicle -1.21756e-014 1.70955e-014
lhumerus -28.7153 -10.7792 76.4077
lradius 57.5628
lwrist 3.79473
lhand -21.6981 -18.2798
lfingers 7.12502
lthumb 4.70028 11.648
rfemur -34.384 -9.68759 18.4651
rtibia 72.0331
rfoot -14.7171 -15.509
rtoes -0.940885
lfemur -17.4782 -0.873469 -21.3757
ltibia 52.9469
lfoot -14.6684 13.6722
ltoes -22.1304
632
root 1.64433 17.2931 32.0972 0.44475 -2.59062 -2.47464
lowerback 17.1196 -0.0309075 -2.00635
upperback 0.309395 -0.21034 2.38414
thorax -9.28151 0.0502525 3.78496
lowerneck -20.1049 1.42246 7.53628
upperneck 20.3786 0.597414 -4.01977
head 9.82975 0.39251 -2.57717
rclavicle -1.35174e-014 4.57205e-015
rhumerus -42.3391 4.98671 -74.8077
rradius 73.4315
rwrist -2.33115
rhand -22.5183 -0.348094
rfingers 7.12502
rthumb 3.90826 -30.292
lclavicle -1.35174e-014 4.57205e-015
lhumerus -28.7261 -11.0605 76.4376
lradius 58.1347
lwrist 3.79039
lhand -21.7526 -18.3303
lfingers 7.12502
lthumb 4.64769 11.5987
rfemur -34.9855 -9.78375 18.7299
rtibia 70.7463
rfoot -14.6554 -15.4356
rtoes -1.44686
lfemur -16.4064 -1.05465 -21.0673
ltibia 51.7924
lfoot -14.5813 13.9355
ltoes -21.9725
633
root 1.6226 17.3479 32.2095 0.412803 -2.53164 -2.89526
lowerback 16.9756 -0.152367 -1.7802
upperback 0.307551 -0.31302 2.51791
thorax -9.19474 -0.00743897 3.82369
lowerneck -20.3472 1.39821 7.506
upperneck 20.5475 0.540098 -3.95994
head 9.93044 0.371644 -2.56298
rclavicle -4.96962e-017 -5.36719e-015
rhumerus -42.8853 5.33679 -74.7268
rradius 74.0807
rwrist -2.01243
rhand -22.4427 -0.144296
rfingers 7.12502
rthumb 3.98131 -30.0868
lclavicle -4.96962e-017 -5.36719e-015
lhumerus -28.7997 -11.3034 76.4741
lradius 58.6971
lwrist 3.87252
lhand -21.8063 -18.3565
lfingers 7.12502
lthumb 4.5958 11.5737
rfemur -35.4611 -9.85616 19.1482
rtibia 69.36
rfoot -14.434 -15.3577
rtoes -1.92413
lfemur -15.2914 -1.29784 -20.6106
ltibia 50.611
lfoot -14.3822 14.1747
ltoes -21.8686
634
root 1.6003 17.4099 32.3235 0.358395 -2.44395 -3.37693
lowerback 16.8497 -0.293605 -1.48332
upperback 0.312777 -0.427431 2.67224
thorax -9.11009 -0.0734117 3.84684
lowerneck -20.6029 1.3813 7.47365
upperneck 20.7121 0.497835 -3.92187
head 10.0333 0.354948 -2.55415
rclavicle 3.39176e-014 -2.96189e-014
rhumerus -43.43 5.67824 -74.6517
rradius 74.6772
rwrist -1.78887
rhand -22.3292 0.0677788
rfingers 7.12502
rthumb 4.0909 -29.8727
lclavicle 3.39176e-014 -2.96189e-014
lhumerus -28.9334 -11.5131 76.5208
lradius 59.2371
lwrist 4.0466
lhand -21.8573 -18.3529
lfingers 7.12502
lthumb 4.54654 11.5783
rfemur -35.8237 -9.91546 19.6306
rtibia 67.8927
rfoot -14.0353 -15.2544
rtoes -2.35334
lfemur -14.1527 -1.61706 -20.0921
ltibia 49.4102
lfoot -14.0401 14.3793
ltoes -21.8375
